<svg width="512" height="512" viewBox="96 48 320 400" fill="none" xmlns="http://www.w3.org/2000/svg">
  <defs>
    <linearGradient id="dropFill" x1="180" y1="90" x2="350" y2="410" gradientUnits="userSpaceOnUse">
      <stop offset="0" stop-color="#5CC3FF"/>
      <stop offset="0.55" stop-color="#2F7FD6"/>
      <stop offset="1" stop-color="#0E3F84"/>
    </linearGradient>
    <linearGradient id="waveFill" x1="170" y1="200" x2="325" y2="355" gradientUnits="userSpaceOnUse">
      <stop offset="0" stop-color="#E8F8FF"/>
      <stop offset="0.2" stop-color="#C7EDFF"/>
      <stop offset="1" stop-color="#FFFFFF"/>
    </linearGradient>
    <linearGradient id="shine" x1="190" y1="120" x2="210" y2="240" gradientUnits="userSpaceOnUse">
      <stop offset="0" stop-color="white" stop-opacity="0.95"/>
      <stop offset="1" stop-color="white" stop-opacity="0"/>
    </linearGradient>
    <filter id="softShadow" x="90" y="50" width="332" height="392" filterUnits="userSpaceOnUse">
      <feDropShadow dx="0" dy="12" stdDeviation="16" flood-color="#082E57" flood-opacity="0.2"/>
    </filter>
  </defs>

  <g filter="url(#softShadow)">
    <path d="M256 82C221 140 138 206 138 308C138 390 188 434 256 434C324 434 374 390 374 308C374 206 291 140 256 82Z"
          fill="url(#dropFill)" stroke="#0B2E63" stroke-width="12" stroke-linejoin="round"/>
  </g>

  <path d="M198 166C179 196 168 228 168 302C168 360 204 400 256 400"
        stroke="#0C2D60" stroke-opacity="0.35" stroke-width="10" stroke-linecap="round"/>
  <path d="M212 150C190 178 180 208 180 286C180 344 212 380 252 392"
        stroke="#0C2D60" stroke-opacity="0.25" stroke-width="6" stroke-linecap="round"/>

  <path d="M186 278C220 222 319 229 333 290C340 321 325 347 294 360C251 379 207 360 186 330C169 305 172 289 186 278Z"
        fill="url(#waveFill)"/>

  <path d="M180 309C203 333 240 349 278 343C317 336 339 311 341 283"
        stroke="#0B2E63" stroke-width="11" stroke-linecap="round"/>
  <path d="M214 322C229 336 256 343 283 338"
        stroke="#6AA9E6" stroke-width="6" stroke-linecap="round"/>

  <path d="M231 294C234 267 261 249 288 249C301 249 314 254 323 263C308 245 285 233 258 233C228 233 199 246 186 278C182 288 181 298 184 308C192 300 205 295 218 295C223 295 227 295 231 294Z"
        fill="#0E3F84"/>

  <path d="M191 144C182 182 181 218 188 248" stroke="url(#shine)" stroke-width="12" stroke-linecap="round"/>

  <path d="M214 172C242 151 289 154 315 180" stroke="white" stroke-width="8" stroke-linecap="round" stroke-opacity="0.95"/>
  <path d="M315 284C322 302 318 324 307 338" stroke="white" stroke-width="7" stroke-linecap="round" stroke-opacity="0.95"/>

  <circle cx="315" cy="184" r="16" fill="white" fill-opacity="0.92"/>
  <circle cx="338" cy="230" r="11" fill="white" fill-opacity="0.88"/>
  <circle cx="292" cy="164" r="8" fill="white" fill-opacity="0.9"/>
  <circle cx="344" cy="182" r="6" fill="white" fill-opacity="0.92"/>
</svg>
